<mxfile host="app.diagrams.net" modified="2020-11-22T07:51:31.524Z" agent="5.0 (Macintosh; Intel Mac OS X 10_15_7) AppleWebKit/605.1.15 (KHTML, like Gecko) Version/14.0.1 Safari/605.1.15" etag="_oElgJlAx0badU418uYf" version="13.9.3" type="github">
  <diagram id="0d7cefc2-ccd6-e077-73ed-a8e48b0cddf6" name="Page-1">
    <mxGraphModel dx="1930" dy="1160" grid="1" gridSize="10" guides="1" tooltips="1" connect="1" arrows="1" fold="1" page="1" pageScale="1" pageWidth="1169" pageHeight="827" background="#ffffff" math="0" shadow="0">
      <root>
        <mxCell id="0" />
        <mxCell id="1" parent="0" />
        <mxCell id="tNEw11JNOzxfa5rHaxFZ-202" style="edgeStyle=orthogonalEdgeStyle;rounded=0;orthogonalLoop=1;jettySize=auto;html=1;exitX=0;exitY=0.5;exitDx=0;exitDy=0;strokeColor=#000000;strokeWidth=2;fontSize=27;entryX=0.5;entryY=1;entryDx=0;entryDy=0;" parent="1" source="tNEw11JNOzxfa5rHaxFZ-200" edge="1" target="tNEw11JNOzxfa5rHaxFZ-160">
          <mxGeometry x="170" y="10" as="geometry">
            <mxPoint x="330" y="480" as="targetPoint" />
          </mxGeometry>
        </mxCell>
        <mxCell id="tNEw11JNOzxfa5rHaxFZ-205" value="Call" style="edgeLabel;html=1;align=center;verticalAlign=middle;resizable=0;points=[];fontSize=19;" parent="tNEw11JNOzxfa5rHaxFZ-202" vertex="1" connectable="0">
          <mxGeometry x="-0.2216" relative="1" as="geometry">
            <mxPoint x="20" as="offset" />
          </mxGeometry>
        </mxCell>
        <mxCell id="tNEw11JNOzxfa5rHaxFZ-108" value="&lt;b&gt;Services&lt;br&gt;Repositories&lt;/b&gt;" style="aspect=fixed;perimeter=ellipsePerimeter;html=1;align=center;shadow=0;dashed=0;fontColor=#4277BB;labelBackgroundColor=#ffffff;fontSize=12;spacingTop=3;image;image=img/lib/ibm/miscellaneous/retrieve_rank.svg;" parent="1" vertex="1">
          <mxGeometry x="680" y="631.34" width="60" height="60" as="geometry" />
        </mxCell>
        <mxCell id="tNEw11JNOzxfa5rHaxFZ-110" value="" style="swimlane;shadow=0;fillColor=#ffffff;fontColor=#4277BB;align=right;startSize=0;collapsible=0;strokeWidth=3;dashed=1;strokeColor=#FF0000;" parent="1" vertex="1">
          <mxGeometry x="110" y="545" width="230" height="230" as="geometry" />
        </mxCell>
        <mxCell id="tNEw11JNOzxfa5rHaxFZ-180" value="Blockchain&lt;br style=&quot;font-size: 18px;&quot;&gt;Node Runner" style="text;html=1;align=center;verticalAlign=middle;fontColor=#4277BB;shadow=0;dashed=0;strokeColor=none;fillColor=none;labelBackgroundColor=none;fontStyle=1;fontSize=18;spacingLeft=0;aspect=fixed;" parent="tNEw11JNOzxfa5rHaxFZ-110" vertex="1">
          <mxGeometry x="50" width="130" height="50" as="geometry" />
        </mxCell>
        <mxCell id="tNEw11JNOzxfa5rHaxFZ-159" value="" style="group" parent="1" vertex="1" connectable="0">
          <mxGeometry x="130" y="610" width="190" height="100" as="geometry" />
        </mxCell>
        <mxCell id="tNEw11JNOzxfa5rHaxFZ-160" value="Apron&lt;br&gt;Node" style="aspect=fixed;perimeter=ellipsePerimeter;html=1;align=center;shadow=0;dashed=0;image;image=img/lib/ibm/management/api_management.svg;rounded=1;labelBackgroundColor=#ffffff;strokeColor=#666666;strokeWidth=3;fillColor=#C2952D;gradientColor=none;fontSize=14;fontColor=#4277BB;spacingTop=3;" parent="tNEw11JNOzxfa5rHaxFZ-159" vertex="1">
          <mxGeometry x="130" y="15" width="60" height="60" as="geometry" />
        </mxCell>
        <mxCell id="tNEw11JNOzxfa5rHaxFZ-161" style="edgeStyle=orthogonalEdgeStyle;rounded=0;orthogonalLoop=1;jettySize=auto;html=1;exitX=1;exitY=0.5;exitDx=0;exitDy=0;entryX=0;entryY=0.5;entryDx=0;entryDy=0;strokeWidth=3;" parent="tNEw11JNOzxfa5rHaxFZ-159" source="tNEw11JNOzxfa5rHaxFZ-162" target="tNEw11JNOzxfa5rHaxFZ-160" edge="1">
          <mxGeometry relative="1" as="geometry" />
        </mxCell>
        <mxCell id="tNEw11JNOzxfa5rHaxFZ-162" value="&lt;b&gt;Parachain&lt;br&gt;Node&lt;/b&gt;" style="aspect=fixed;perimeter=ellipsePerimeter;html=1;align=center;shadow=0;dashed=0;image;image=img/lib/ibm/data/data_services.svg;rounded=1;labelBackgroundColor=#ffffff;strokeColor=#666666;strokeWidth=3;fillColor=#C2952D;gradientColor=none;fontSize=14;fontColor=#4277BB;" parent="tNEw11JNOzxfa5rHaxFZ-159" vertex="1">
          <mxGeometry y="15" width="60" height="60" as="geometry" />
        </mxCell>
        <mxCell id="tNEw11JNOzxfa5rHaxFZ-163" style="edgeStyle=orthogonalEdgeStyle;rounded=0;orthogonalLoop=1;jettySize=auto;html=1;exitX=0;exitY=0.5;exitDx=0;exitDy=0;entryX=1;entryY=0.5;entryDx=0;entryDy=0;strokeWidth=3;" parent="tNEw11JNOzxfa5rHaxFZ-159" source="tNEw11JNOzxfa5rHaxFZ-160" target="tNEw11JNOzxfa5rHaxFZ-162" edge="1">
          <mxGeometry relative="1" as="geometry" />
        </mxCell>
        <mxCell id="tNEw11JNOzxfa5rHaxFZ-164" value="" style="html=1;labelBackgroundColor=#ffffff;endArrow=none;endFill=0;jettySize=auto;orthogonalLoop=1;strokeWidth=3;dashed=1;fontSize=14;" parent="tNEw11JNOzxfa5rHaxFZ-159" edge="1">
          <mxGeometry width="60" height="60" relative="1" as="geometry">
            <mxPoint x="96" y="100" as="sourcePoint" />
            <mxPoint x="96" as="targetPoint" />
          </mxGeometry>
        </mxCell>
        <mxCell id="tNEw11JNOzxfa5rHaxFZ-200" value="&lt;b&gt;DApp&lt;/b&gt;" style="aspect=fixed;perimeter=ellipsePerimeter;html=1;align=center;shadow=0;dashed=0;fontColor=#4277BB;labelBackgroundColor=#ffffff;fontSize=12;spacingTop=3;image;image=img/lib/ibm/users/browser.svg;strokeColor=#B3B3B3;" parent="1" vertex="1">
          <mxGeometry x="680" y="767" width="60" height="60" as="geometry" />
        </mxCell>
        <mxCell id="tNEw11JNOzxfa5rHaxFZ-189" value="" style="swimlane;shadow=0;strokeColor=#4277BB;fillColor=#ffffff;fontColor=#4277BB;align=right;startSize=0;collapsible=0;strokeWidth=3;" parent="1" vertex="1">
          <mxGeometry x="390" y="582" width="210" height="145" as="geometry" />
        </mxCell>
        <mxCell id="tNEw11JNOzxfa5rHaxFZ-208" value="&lt;p style=&quot;font-size: 22px&quot;&gt;&lt;span style=&quot;font-weight: normal&quot;&gt;&lt;font style=&quot;font-size: 22px&quot;&gt;Decentralized&lt;br&gt;&lt;/font&gt;&lt;font style=&quot;font-size: 22px&quot;&gt;API&lt;br&gt;&lt;/font&gt;&lt;font style=&quot;font-size: 22px&quot;&gt;Market&lt;/font&gt;&lt;/span&gt;&lt;/p&gt;" style="text;html=1;align=center;verticalAlign=middle;fontColor=#4277BB;shadow=0;dashed=0;strokeColor=none;fillColor=none;labelBackgroundColor=none;fontStyle=1;fontSize=27;spacingLeft=0;aspect=fixed;" parent="tNEw11JNOzxfa5rHaxFZ-189" vertex="1">
          <mxGeometry x="70" y="42.5" width="140" height="73.68" as="geometry" />
        </mxCell>
        <mxCell id="tNEw11JNOzxfa5rHaxFZ-201" value="&lt;b&gt;Smart&lt;br&gt;Contracts&lt;/b&gt;" style="aspect=fixed;perimeter=ellipsePerimeter;html=1;align=center;shadow=0;dashed=0;fontColor=#4277BB;labelBackgroundColor=#ffffff;fontSize=12;spacingTop=3;image;image=img/lib/ibm/blockchain/smart_contract.svg;strokeColor=#B3B3B3;" parent="tNEw11JNOzxfa5rHaxFZ-189" vertex="1">
          <mxGeometry x="5" y="30" width="60" height="60" as="geometry" />
        </mxCell>
        <mxCell id="4eHYl1Cn7A0D1TI2rZqf-2" style="rounded=0;orthogonalLoop=1;jettySize=auto;html=1;exitX=1;exitY=0.5;exitDx=0;exitDy=0;entryX=0;entryY=0.5;entryDx=0;entryDy=0;" edge="1" parent="1" source="tNEw11JNOzxfa5rHaxFZ-160" target="tNEw11JNOzxfa5rHaxFZ-189">
          <mxGeometry relative="1" as="geometry" />
        </mxCell>
        <mxCell id="4eHYl1Cn7A0D1TI2rZqf-3" style="edgeStyle=none;rounded=0;orthogonalLoop=1;jettySize=auto;html=1;exitX=1;exitY=0.5;exitDx=0;exitDy=0;entryX=0;entryY=0.5;entryDx=0;entryDy=0;" edge="1" parent="1" source="tNEw11JNOzxfa5rHaxFZ-208" target="tNEw11JNOzxfa5rHaxFZ-108">
          <mxGeometry relative="1" as="geometry" />
        </mxCell>
      </root>
    </mxGraphModel>
  </diagram>
</mxfile>
